<svg id="SvgjsSvg1034" width="288" height="288" xmlns="http://www.w3.org/2000/svg" version="1.1" xmlns:xlink="http://www.w3.org/1999/xlink" xmlns:svgjs="http://svgjs.com/svgjs"><defs id="SvgjsDefs1035"></defs><g id="SvgjsG1036"><svg xmlns="http://www.w3.org/2000/svg" width="288" height="288" enable-background="new 0 0 24 24" viewBox="0 0 24 24"><path d="M11,22C4.935,22,0,17.065,0,11S4.935,0,11,0s11,4.935,11,11S17.065,22,11,22z M11,2c-4.962,0-9,4.037-9,9s4.038,9,9,9
		s9-4.037,9-9S15.962,2,11,2z" fill="#d8d4d4" class="color000 svgShape"></path><path d="M23,24c-0.256,0-0.512-0.098-0.707-0.293l-4.795-4.795c-0.39-0.391-0.39-1.024,0-1.414c0.391-0.391,1.024-0.391,1.415,0
		l4.794,4.795c0.391,0.391,0.391,1.023,0,1.414C23.512,23.902,23.256,24,23,24z" fill="#d8d4d4" class="color000 svgShape"></path></svg></g></svg>