<svg id="SvgjsSvg1024" width="288" height="288" xmlns="http://www.w3.org/2000/svg" version="1.1" xmlns:xlink="http://www.w3.org/1999/xlink" xmlns:svgjs="http://svgjs.com/svgjs"><defs id="SvgjsDefs1025"></defs><g id="SvgjsG1026"><svg xmlns="http://www.w3.org/2000/svg" data-name="Layer 1" viewBox="0 0 29 29" width="288" height="288"><path d="M14.5,2A12.51408,12.51408,0,0,0,2,14.5,12.52131,12.52131,0,0,0,14.5,27a12.5,12.5,0,0,0,0-25Zm7.60309,19.71283a8.48005,8.48005,0,0,0-15.19873.00824A10.36659,10.36659,0,0,1,4,14.5a10.5,10.5,0,0,1,21,0A10.36807,10.36807,0,0,1,22.10309,21.71283ZM14.5,7A4.5,4.5,0,1,0,19,11.5,4.5,4.5,0,0,0,14.5,7Z" fill="#aba5a5" class="color000 svgShape"></path></svg></g></svg>